<!--?xml version="1.0" standalone="no"?-->
              <svg id="sw-js-blob-svg" viewBox="0 0 100 100" xmlns="http://www.w3.org/2000/svg" version="1.1">
                    <defs> 
                        <linearGradient id="sw-gradient" x1="0" x2="1" y1="1" y2="0">
                            <stop id="stop1" stop-color="rgba(248, 117, 55, 1)" offset="0%"></stop>
                            <stop id="stop2" stop-color="rgba(251, 168, 31, 1)" offset="100%"></stop>
                        </linearGradient>
                    </defs>
                <path fill="url(#sw-gradient)" d="M18.5,-29.7C21.6,-23.3,20,-14.6,22.6,-7.2C25.2,0.2,31.8,6.3,33,13.2C34.1,20,29.7,27.4,23.3,30.3C16.9,33.2,8.4,31.6,1.5,29.5C-5.4,27.4,-10.8,24.9,-16.5,21.7C-22.2,18.6,-28.2,14.9,-28.7,10.1C-29.1,5.4,-23.9,-0.3,-20.1,-4.8C-16.2,-9.2,-13.8,-12.4,-10.7,-18.8C-7.5,-25.3,-3.8,-35,2,-37.7C7.7,-40.4,15.4,-36.2,18.5,-29.7Z" width="100%" height="100%" transform="translate(50 50)" style="transition: all 0.3s ease 0s;" stroke-width="0" stroke="url(#sw-gradient)"></path>
              </svg>