<?xml version="1.0" standalone="no"?>
<svg viewBox="0 0 200 200" xmlns="http://www.w3.org/2000/svg">
  <path fill="#B4CDED" d="M28.6,-43.1C41.1,-36.5,57.9,-35.3,62.9,-27.7C67.9,-20.2,61,-6.2,54.5,4.6C47.9,15.4,41.6,23,37.1,37.1C32.6,51.2,29.8,71.7,23.3,68.9C16.7,66.1,6.3,39.9,-6.7,31.9C-19.7,23.9,-35.4,34.1,-45.6,33.4C-55.9,32.6,-60.7,21,-61.6,9.4C-62.4,-2.2,-59.2,-13.9,-52.2,-21.7C-45.3,-29.4,-34.6,-33.3,-25.3,-41.3C-15.9,-49.4,-8,-61.6,0,-61.7C8.1,-61.7,16.1,-49.7,28.6,-43.1Z" transform="translate(100 100)" />
</svg>
